<svg id="Layer_1" data-name="Layer 1" xmlns="http://www.w3.org/2000/svg" viewBox="0 0 72 72"><defs><style>.cls-1{fill:#212121;}.cls-2,.cls-3{fill:#fff;}.cls-3{font-size:11.73px;stroke:#fff;stroke-miterlimit:10;stroke-width:0.5px;font-family:GoudyOldStyleT-Regular, Goudy Old Style;}.cls-4{letter-spacing:-0.02em;}.cls-5{letter-spacing:-0.02em;}.cls-6{fill:none;}</style></defs><title>Artboard 2</title><circle class="cls-1" cx="36" cy="36.5" r="34"/><path class="cls-2" d="M36,4A32.5,32.5,0,1,1,3.5,36.5,32.54,32.54,0,0,1,36,4m0-3A35.5,35.5,0,1,0,71.5,36.5,35.5,35.5,0,0,0,36,1Z"/><text class="cls-3" transform="translate(17.2 52.75)">Air<tspan class="cls-4" x="14.98" y="0">N</tspan><tspan class="cls-5" x="23.48" y="0">o</tspan><tspan x="29.21" y="0">w</tspan></text><path class="cls-6" d="M51.21,41.6H20.79V12.08H51.21ZM23.27,34.38l.29-.05,5.93-1.27a.75.75,0,0,1,.85.2,2.19,2.19,0,0,0,.56.43.41.41,0,0,1,.19.44c-.12,1.69-.22,3.38-.33,5.07a2.37,2.37,0,0,0,0,.24l.23-.26,3.07-3.83a.31.31,0,0,1,.36-.15,7,7,0,0,0,1.12.13.49.49,0,0,1,.46.28q1.73,2.79,3.46,5.57l.16.26.08,0c0-.14,0-.28,0-.42l.21-6.23a.4.4,0,0,1,.23-.36c.45-.24.89-.51,1.32-.79a.38.38,0,0,1,.42,0l3.56,1.61.34.13c-.07-.16-.11-.26-.16-.36-.58-1.18-1.16-2.37-1.75-3.55a.45.45,0,0,1,0-.46c.27-.53.52-1.07.76-1.62a.35.35,0,0,1,.3-.26L50,28.14l1.16-.23-.37-.18L45.3,25.19a.5.5,0,0,1-.31-.38c-.14-.58-.3-1.16-.49-1.73a.41.41,0,0,1,.08-.47c.65-.78,1.29-1.56,1.93-2.35.31-.37.61-.74.94-1.16l-.2,0-4.29,1a.45.45,0,0,1-.52-.13,2.7,2.7,0,0,0-.59-.53.5.5,0,0,1-.22-.58c.25-2,.49-4,.74-6.06a2.52,2.52,0,0,0,0-.28l-.46.5L38,17.4a.43.43,0,0,1-.4.17c-.61-.06-1.22-.1-1.83-.11a.38.38,0,0,1-.39-.23q-1.29-2.4-2.59-4.8l-.19-.31c-.22,1.93-.44,3.76-.61,5.6-.06.52-.13,1-.69,1.15a1,1,0,0,0-.32.21.36.36,0,0,1-.45.05c-1.61-.76-3.22-1.5-4.83-2.24l-.31-.12.14.28c.8,1.41,1.58,2.84,2.41,4.23.29.48.43.89.05,1.37-.07.09-.08.23-.15.32a.74.74,0,0,1-.3.26l-4.37,1-2.25.51.29.14,5.74,2.54a.48.48,0,0,1,.33.42c.1.5.22,1,.36,1.48a.38.38,0,0,1-.1.44l-3.74,4.11Zm23.6-3.24a.87.87,0,1,0,.89.87A.87.87,0,0,0,46.87,31.14ZM25.3,21.26a.65.65,0,0,0-.65-.66.66.66,0,0,0,0,1.31A.64.64,0,0,0,25.3,21.26Zm12.21-6.55a.55.55,0,1,0-1.1,0,.55.55,0,0,0,1.1,0ZM34,37.7a.55.55,0,0,0-.55.54.55.55,0,1,0,1.1,0A.55.55,0,0,0,34,37.7ZM48.49,23a.53.53,0,0,0-.53-.55.53.53,0,0,0-.55.53.54.54,0,0,0,1.08,0ZM26.18,29.57a.55.55,0,0,0-1.09,0,.55.55,0,0,0,1.09,0Z"/><path class="cls-2" d="M23.27,34.38l.49-.55,3.74-4.11a.38.38,0,0,0,.1-.44c-.14-.49-.26-1-.36-1.48a.48.48,0,0,0-.33-.42l-5.74-2.54-.29-.14,2.25-.51,4.37-1a.74.74,0,0,0,.3-.26c.07-.09.08-.23.15-.32.38-.48.24-.89-.05-1.37-.83-1.39-1.61-2.82-2.41-4.23l-.14-.28.31.12c1.61.74,3.22,1.48,4.83,2.24a.36.36,0,0,0,.45-.05,1,1,0,0,1,.32-.21c.56-.19.63-.63.69-1.15.17-1.84.39-3.67.61-5.6l.19.31q1.3,2.4,2.59,4.8a.38.38,0,0,0,.39.23c.61,0,1.22.05,1.83.11a.43.43,0,0,0,.4-.17l3.95-4.33.46-.5a2.52,2.52,0,0,1,0,.28c-.25,2-.49,4-.74,6.06a.5.5,0,0,0,.22.58,2.7,2.7,0,0,1,.59.53.45.45,0,0,0,.52.13l4.29-1,.2,0c-.33.42-.63.79-.94,1.16-.64.79-1.28,1.57-1.93,2.35a.41.41,0,0,0-.08.47c.19.57.35,1.15.49,1.73a.5.5,0,0,0,.31.38l5.51,2.54.37.18L50,28.14,45,29.07a.35.35,0,0,0-.3.26c-.24.55-.49,1.09-.76,1.62a.45.45,0,0,0,0,.46c.59,1.18,1.17,2.37,1.75,3.55,0,.1.09.2.16.36l-.34-.13-3.56-1.61a.38.38,0,0,0-.42,0c-.43.28-.87.55-1.32.79a.4.4,0,0,0-.23.36L39.71,41c0,.14,0,.28,0,.42l-.08,0-.16-.26Q37.73,38.41,36,35.61a.49.49,0,0,0-.46-.28,7,7,0,0,1-1.12-.13.31.31,0,0,0-.36.15L31,39.18l-.23.26a2.37,2.37,0,0,1,0-.24c.11-1.69.21-3.38.33-5.07a.41.41,0,0,0-.19-.44,2.19,2.19,0,0,1-.56-.43.75.75,0,0,0-.85-.2l-5.93,1.27ZM34,28a1.4,1.4,0,0,0-1.45,1.36A1.42,1.42,0,0,0,34,30.73a1.4,1.4,0,0,0,1.44-1.37A1.38,1.38,0,0,0,34,28Zm5.55-3a1.14,1.14,0,0,0-1.13-1.16A1.18,1.18,0,0,0,37.23,25a1.16,1.16,0,0,0,1.16,1.14A1.14,1.14,0,0,0,39.54,25Zm-6.17-1.77a.86.86,0,0,0-.86-.86.86.86,0,1,0,0,1.72A.85.85,0,0,0,33.37,23.23Z"/><path class="cls-2" d="M46.87,31.14A.87.87,0,1,1,46,32,.88.88,0,0,1,46.87,31.14Z"/><path class="cls-2" d="M25.3,21.26a.64.64,0,0,1-.66.65.66.66,0,0,1,0-1.31A.65.65,0,0,1,25.3,21.26Z"/><path class="cls-2" d="M37.51,14.71a.55.55,0,0,1-1.1,0,.55.55,0,1,1,1.1,0Z"/><path class="cls-2" d="M34,37.7a.55.55,0,0,1,.55.54.55.55,0,1,1-1.1,0A.55.55,0,0,1,34,37.7Z"/><path class="cls-2" d="M48.49,23a.54.54,0,0,1-1.08,0,.53.53,0,0,1,.55-.53A.53.53,0,0,1,48.49,23Z"/><path class="cls-2" d="M26.18,29.57a.55.55,0,0,1-1.09,0,.55.55,0,0,1,1.09,0Z"/><path class="cls-1" d="M34,28a1.38,1.38,0,0,1,1.45,1.35A1.4,1.4,0,0,1,34,30.73a1.42,1.42,0,0,1-1.46-1.36A1.4,1.4,0,0,1,34,28Z"/><path class="cls-1" d="M39.54,25a1.14,1.14,0,0,1-1.15,1.14A1.16,1.16,0,0,1,37.23,25a1.18,1.18,0,0,1,1.18-1.16A1.14,1.14,0,0,1,39.54,25Z"/><path class="cls-1" d="M33.37,23.23a.85.85,0,0,1-.86.86.86.86,0,1,1,.86-.86Z"/></svg>