<svg xmlns="http://www.w3.org/2000/svg" viewBox="0 0 72 72"><defs><style>.cls-1{fill:none;}.cls-2{fill:#879cb2;}</style></defs><title>Temperater</title><g id="Layer_2" data-name="Layer 2"><g id="Icon_Temp_ab" data-name="Icon Temp_ab"><path class="cls-1" d="M10.18,79.93V-10H93.67V79.93Zm29-48.83V14.31a5.55,5.55,0,0,0-.09-1,4.55,4.55,0,0,0-5.21-3.78,4.49,4.49,0,0,0-3.49,3.2,5.24,5.24,0,0,0-.26,1.8V48.09c0,.5,0,.38-.27.68A8,8,0,0,0,27.71,56c.88,4.31,4.95,7,9,5.68a7.92,7.92,0,0,0,2.68-13c-.28-.27-.25-.2-.25-.61v-17ZM46.65,14c-.29-.06-3.67-.08-4.34-.05l-.16,0a1.47,1.47,0,0,0,0,.51.91.91,0,0,0,0,.51h4.09a.61.61,0,0,0,.37-.06A3.43,3.43,0,0,0,46.65,14ZM42.14,24h4.14a.52.52,0,0,0,.36-.06,3.66,3.66,0,0,0,0-.81.7.7,0,0,0-.05-.18H42.51a.61.61,0,0,0-.37.05A6.67,6.67,0,0,0,42.14,24Zm0,8a2.58,2.58,0,0,0,0,1h.16c1.37,0,2.74,0,4.1,0a1.38,1.38,0,0,0,.2,0,4,4,0,0,0,0-.84.66.66,0,0,0,0-.15C46.33,31.88,42.48,31.87,42.16,31.91Zm4.49,9-.24,0H42.34a1,1,0,0,0-.21,0c0,.18,0,.35,0,.51a1.08,1.08,0,0,0,0,.5h4.27l.21,0A4.87,4.87,0,0,0,46.65,40.89ZM42.14,19.45l.16,0h3.5a.66.66,0,0,0,.15,0,2.24,2.24,0,0,0,0-1l-.16,0H42.34l-.21,0C42.13,18.79,42.11,19.11,42.14,19.45Zm3.83,8c-.3-.06-2.85-.09-3.62-.05l-.21,0a4.17,4.17,0,0,0,0,1l.18,0h3.43l.21,0A4.59,4.59,0,0,0,46,27.45Zm0,9a.72.72,0,0,0-.39-.07H42.43c-.1,0-.21,0-.29.09a4.23,4.23,0,0,0,0,.94.37.37,0,0,0,.11,0h3.56l.14,0A3.93,3.93,0,0,0,46,36.45Z"/><path class="cls-2" d="M39.16,31.1v17c0,.41,0,.34.25.61a7.92,7.92,0,0,1-2.68,13c-4.07,1.34-8.14-1.37-9-5.68a8,8,0,0,1,2.13-7.23c.29-.3.27-.18.27-.68V14.53a5.24,5.24,0,0,1,.26-1.8,4.49,4.49,0,0,1,3.49-3.2,4.55,4.55,0,0,1,5.21,3.78,5.55,5.55,0,0,1,.09,1V31.1Zm-1.32.41V14.75a3.73,3.73,0,0,0,0-.47,5.2,5.2,0,0,0-.1-.78,3.25,3.25,0,0,0-3-2.61,3.3,3.3,0,0,0-3.25,3.22c0,.26,0,.53,0,.79V48.31c0,.15,0,.31,0,.46a.76.76,0,0,1-.26.63l-.13.11A6.46,6.46,0,0,0,29,55.6a5.78,5.78,0,0,0,7,4.8,6.4,6.4,0,0,0,2.74-10.33,8.07,8.07,0,0,0-.67-.64.84.84,0,0,1-.29-.7q0-.46,0-.93Z"/><path class="cls-1" d="M37.84,31.51V47.8q0,.47,0,.93a.84.84,0,0,0,.29.7,8.07,8.07,0,0,1,.67.64A6.4,6.4,0,0,1,36,60.4a5.78,5.78,0,0,1-7-4.8,6.46,6.46,0,0,1,2.09-6.09l.13-.11a.76.76,0,0,0,.26-.63c0-.15,0-.31,0-.46V14.9c0-.26,0-.53,0-.79a3.3,3.3,0,0,1,3.25-3.22,3.25,3.25,0,0,1,3,2.61,5.2,5.2,0,0,1,.1.78,3.73,3.73,0,0,1,0,.47ZM33,49.82a4.61,4.61,0,0,0-2.38,2.36,5,5,0,0,0-.27,3.46,4.37,4.37,0,0,0,8.57-.08,5.13,5.13,0,0,0-.18-3.1,4.59,4.59,0,0,0-2.48-2.63,2.28,2.28,0,0,1,0-.58V16.73a5.42,5.42,0,0,0,0-.57,2.33,2.33,0,0,0-.07-.53,1.59,1.59,0,0,0-1.56-1.22,1.64,1.64,0,0,0-1.52,1.27,2.31,2.31,0,0,0-.05.64V32.94q0,8.2,0,16.4C33,49.49,33,49.65,33,49.82Z"/><path class="cls-2" d="M36.25,36.75v12.5a2.28,2.28,0,0,0,0,.58,4.58,4.58,0,0,1,2.47,2.63,5,5,0,0,1,.19,3.1,4.38,4.38,0,0,1-8.58.09,5.12,5.12,0,0,1,.28-3.47A4.57,4.57,0,0,1,33,49.82c0-.17,0-.33,0-.48V37"/><path class="cls-2" d="M33,53V36.67a7.89,7.89,0,0,1,0-1.09A1.65,1.65,0,0,1,34.6,34.3a1.59,1.59,0,0,1,1.56,1.22,3.08,3.08,0,0,1,.08.53c0,.19,0,.38,0,.58V53"/><rect class="cls-2" x="42.12" y="13.9" width="4.56" height="1.09"/><rect class="cls-2" x="42.12" y="18.42" width="3.88" height="1.06"/><rect class="cls-2" x="42.12" y="22.9" width="4.56" height="1.07"/><rect class="cls-2" x="42.12" y="27.39" width="3.88" height="1.08"/><rect class="cls-2" x="42.12" y="31.89" width="4.56" height="1.06"/><rect class="cls-2" x="42.12" y="36.38" width="3.88" height="1.07"/><rect class="cls-2" x="42.12" y="40.87" width="4.56" height="1.06"/></g></g></svg>