<svg xmlns="http://www.w3.org/2000/svg" width="36" height="36" viewBox="0 0 36 36"><g fill="none" fill-rule="evenodd"><path d="M0 36h35.998V0H0z"/><path fill="#49739A" d="M21.283 21.283A4.616 4.616 0 0 1 18 22.642a4.617 4.617 0 0 1-3.284-1.36 4.65 4.65 0 0 1 0-6.565A4.617 4.617 0 0 1 18 13.358c1.239 0 2.404.483 3.282 1.36A4.617 4.617 0 0 1 22.642 18a4.616 4.616 0 0 1-1.36 3.282M18.002 12A6 6 0 1 0 18 24a6 6 0 0 0 0-12"/><path fill="#49739A" d="M29.943 24.274l-1.881-.381a3.507 3.507 0 0 0-3.201.981 3.512 3.512 0 0 0-.968 3.187l.381 1.881-2.266.94-1.06-1.6a3.525 3.525 0 0 0-2.962-1.57 3.513 3.513 0 0 0-2.934 1.57l-1.06 1.6-2.267-.94.381-1.88a3.513 3.513 0 0 0-.98-3.2 3.494 3.494 0 0 0-3.188-.97l-1.881.382-.94-2.267 1.601-1.06a3.517 3.517 0 0 0 1.57-2.955 3.51 3.51 0 0 0-1.57-2.939l-1.6-1.06.939-2.267 1.88.381a3.508 3.508 0 0 0 3.201-.982 3.507 3.507 0 0 0 .968-3.188l-.38-1.88 2.266-.94 1.06 1.6a3.525 3.525 0 0 0 2.961 1.571 3.513 3.513 0 0 0 2.934-1.57l1.06-1.6 2.267.938-.38 1.881a3.519 3.519 0 0 0 .98 3.201 3.5 3.5 0 0 0 3.188.97l1.88-.382.94 2.267-1.6 1.06a3.515 3.515 0 0 0-1.57 2.955 3.51 3.51 0 0 0 1.57 2.939l1.6 1.06-.94 2.267zm2.274-3.123l-2.132-1.413a2.063 2.063 0 0 1-.92-1.728v-.021a2.062 2.062 0 0 1 .92-1.727l2.132-1.413a.678.678 0 0 0 .25-.823L31.04 10.58a.68.68 0 0 0-.759-.403l-2.505.505a2.068 2.068 0 0 1-1.872-.569l-.016-.014a2.066 2.066 0 0 1-.57-1.874l.507-2.505a.675.675 0 0 0-.405-.76l-3.444-1.427a.676.676 0 0 0-.823.25l-1.415 2.132a2.066 2.066 0 0 1-1.724.921h-.028a2.062 2.062 0 0 1-1.723-.92l-1.415-2.132a.673.673 0 0 0-.822-.25L10.581 4.96a.677.677 0 0 0-.405.76l.507 2.505a2.063 2.063 0 0 1-.57 1.872c-.005.006-.01.01-.014.017a2.08 2.08 0 0 1-1.465.61c-.137 0-.273-.013-.41-.042l-2.503-.505a.678.678 0 0 0-.76.403l-1.427 3.446c-.125.3-.02.645.25.823l2.13 1.413c.58.384.923 1.032.923 1.728v.021c0 .695-.344 1.343-.923 1.727l-2.13 1.413a.676.676 0 0 0-.25.823L4.96 25.42a.676.676 0 0 0 .76.403l2.504-.507a2.068 2.068 0 0 1 1.873.57l.016.015c.492.49.708 1.193.57 1.874l-.507 2.505a.679.679 0 0 0 .405.76l3.445 1.427a.673.673 0 0 0 .822-.25l1.415-2.132a2.06 2.06 0 0 1 1.723-.921h.027c.695 0 1.341.343 1.724.92l1.414 2.132a.676.676 0 0 0 .824.25l3.444-1.426a.675.675 0 0 0 .405-.76l-.507-2.505a2.062 2.062 0 0 1 .57-1.872l.015-.017a2.067 2.067 0 0 1 1.873-.57l2.505.507a.676.676 0 0 0 .759-.404l1.428-3.445a.678.678 0 0 0-.25-.823z"/></g></svg>